HIERARCHY
ROOT Root
{
	OFFSET 0.00000 0.00000 0.00000
	CHANNELS 6 Xposition Yposition Zposition Zrotation Xrotation Yrotation
	JOINT Hips
	{
		OFFSET 0 0 0	
		CHANNELS 3 Zrotation Xrotation Yrotation
		JOINT Spine
		{
			OFFSET 0 4 0	
			CHANNELS 3 Zrotation Xrotation Yrotation
			JOINT Spine1
			{
				OFFSET 0 19.4 0	
				CHANNELS 3 Zrotation Xrotation Yrotation
				JOINT Spine2
				{
					OFFSET 0 16.6 0	
					CHANNELS 3 Zrotation Xrotation Yrotation
					JOINT LeftCollar
					{
						OFFSET 0 10 0	
						CHANNELS 3 Zrotation Xrotation Yrotation
						JOINT LeftArm
						{
							OFFSET 15.6 -2 3	
							CHANNELS 3 Zrotation Xrotation Yrotation
							JOINT LeftForeArm
							{
								OFFSET 3.5 -27 -1	
								CHANNELS 3 Zrotation Xrotation Yrotation
								JOINT LeftHand
								{
									OFFSET 1 -27 1	
									CHANNELS 3 Zrotation Xrotation Yrotation
									End Site
									{
										OFFSET 0 -15 0
									}
								}
							}
						}
					}
					JOINT RightCollar
					{
						OFFSET 0 10 0	
						CHANNELS 3 Zrotation Xrotation Yrotation
						JOINT RightArm
						{
							OFFSET -15.6 -2 3	
							CHANNELS 3 Zrotation Xrotation Yrotation
							JOINT RightForeArm
							{
								OFFSET -3.5 -27 -1	
								CHANNELS 3 Zrotation Xrotation Yrotation
								JOINT RightHand
								{
									OFFSET -1 -27 1	
									CHANNELS 3 Zrotation Xrotation Yrotation
									End Site
									{
										OFFSET 0 -15 0
									}
								}
							}
						}
					}
					JOINT Neck
					{
						OFFSET 0 10 0	
						CHANNELS 3 Zrotation Xrotation Yrotation
						JOINT Head
						{
							OFFSET 0 12.7 3	
							CHANNELS 3 Zrotation Xrotation Yrotation
							End Site
							{
								OFFSET 0 12.7 3
							}
						}
					}
				}
			}
		}
	}
	JOINT LeftHip
	{
		OFFSET 0 0 0	
		CHANNELS 3 Zrotation Xrotation Yrotation
		JOINT LeftUpLeg
		{
			OFFSET 8.8 -6 0	
			CHANNELS 3 Zrotation Xrotation Yrotation
			JOINT LeftLeg
			{
				OFFSET 0 -39 2	
				CHANNELS 3 Zrotation Xrotation Yrotation
				JOINT LeftFoot
				{
					OFFSET 0 -43 -2	
					CHANNELS 3 Zrotation Xrotation Yrotation
					JOINT LeftFootFront
					{
						OFFSET 0 -7 8.5	
						CHANNELS 3 Zrotation Xrotation Yrotation
						End Site
						{
							OFFSET 0 -0.5 9
						}
					}
				}
				JOINT LeftHeel
				{
					OFFSET 0 -43 -2	
					CHANNELS 3 Zrotation Xrotation Yrotation
					End Site
					{
						OFFSET 0 -7.5 -5
					}
				}
			}
		}
	}
	JOINT RightHip
	{
		OFFSET 0 0 0	
		CHANNELS 3 Zrotation Xrotation Yrotation
		JOINT RightUpLeg
		{
			OFFSET -8.8 -6 0	
			CHANNELS 3 Zrotation Xrotation Yrotation
			JOINT RightLeg
			{
				OFFSET 0 -39 2	
				CHANNELS 3 Zrotation Xrotation Yrotation
				JOINT RightFoot
				{
					OFFSET 0 -43 -2	
					CHANNELS 3 Zrotation Xrotation Yrotation
					JOINT RightFootFront
					{
						OFFSET 0 -7 8.5	
						CHANNELS 3 Zrotation Xrotation Yrotation
						End Site
						{
							OFFSET 0 -0.5 9
						}
					}
				}
				JOINT RightHeel
				{
					OFFSET 0 -43 -2	
					CHANNELS 3 Zrotation Xrotation Yrotation
					End Site
					{
						OFFSET 0 -7.5 -5
					}
				}
			}
		}
	}
}
MOTION
Frames: 12
Frame Time: 0.025
20.414 96.39 18.251 -0 0 -0 -3.8172 -34.05 132.13 7.0955 24.515 6.7919 7.0955 24.515 6.7919 6.103 20.542 5.8602 -0 0 -0 -44.379 -58.743 -81.408 46.549 -79.705 39.783 19.705 14.667 18.421 -0 0 -0 -17.157 -61.28 -7.0016 62.472 -43.62 83.164 -26.508 49.111 -123.72 13.783 -14.171 -13.897 13.783 -14.171 -13.897 -3.8172 -34.05 132.13 19.313 -37.692 -39.147 -2.0937 5.4856 -2.7551 47.314 -6.3357 52.736 1.0015 0.32631 -0.11143 -0 0 -0 -3.8172 -34.05 132.13 21.454 -44.995 -27.754 -17.156 30.975 6.8752 3.6632 -12.744 21.096 0.01043 -0.056648 0.00771 -0 0 -0 
20.376 96.371 18.822 -0 0 -0 -4.2603 -33.534 131.2 7.2799 24.085 6.5444 7.2799 24.085 6.5444 6.247 20.181 5.6582 -0 0 -0 -45.439 -58.751 -81.296 44.058 -79.696 38.112 15.555 14.728 22.499 -0 0 -0 -16.874 -60.993 -3.4071 58.678 -45.362 79.752 -25.26 48.714 -124.83 13.25 -13.774 -14.387 13.25 -13.774 -14.387 -4.2603 -33.534 131.2 19.725 -37.52 -38.774 -2.5232 5.3719 -2.1257 47.425 -4.4166 53.839 0.98769 0.38641 0.27428 -0 0 -0 -4.2603 -33.534 131.2 21.669 -45.093 -27.423 -17.163 30.952 7.3282 3.0562 -12.516 21.16 0.012409 -0.050686 0.011419 -0 0 -0 
20.314 96.324 19.407 -0 0 -0 -4.8224 -33.156 130.49 7.454 23.551 6.3619 7.454 23.551 6.3619 6.3844 19.733 5.5088 -0 0 -0 -46.06 -58.816 -81.103 42.467 -79.169 36.459 10.606 14.155 27.359 -0 0 -0 -16.423 -60.979 -0.22396 54.887 -47.501 75.51 -24.529 48.501 -124.31 12.851 -13.533 -14.89 12.851 -13.533 -14.89 -4.8224 -33.156 130.49 20.047 -37.698 -38.68 -2.9073 5.4191 -1.6546 46.947 -4.3265 54.413 0.7784 0.42354 0.80175 -0 0 -0 -4.8224 -33.156 130.49 21.755 -45.431 -27.351 -17.14 30.865 7.7738 2.384 -12.18 21.176 0.0020298 -0.024846 0.0079965 -0 0 -0 
20.227 96.251 19.995 -0 0 -0 -5.3885 -32.779 130.11 7.5887 23.018 6.1254 7.5887 23.018 6.1254 6.488 19.287 5.313 -0 0 -0 -45.961 -59.151 -80.52 42.44 -78.401 35.865 5.885 12.965 31.776 -0 0 -0 -15.651 -61.107 2.3522 52.358 -49.526 71.404 -25.43 48.653 -121.41 12.618 -13.424 -15.219 12.618 -13.424 -15.219 -5.3885 -32.779 130.11 20.164 -38.054 -38.93 -3.1751 5.5788 -1.3342 46.086 -5.8411 54.077 0.46831 0.37715 0.75437 -0 0 -0 -5.3885 -32.779 130.11 21.519 -45.818 -27.746 -17.064 30.663 8.1782 1.7077 -11.743 21.232 -0.013128 0.0017262 0.0013723 -0 0 -0 
20.115 96.155 20.575 -0 0 -0 -5.8816 -32.332 129.97 7.6567 22.466 5.8357 7.6567 22.466 5.8357 6.5348 18.824 5.0705 -0 0 -0 -44.868 -59.619 -79.201 43.254 -77.501 35.777 2.2707 11.424 34.99 -0 0 -0 -14.677 -61.277 3.8639 51.511 -51.029 67.688 -28.39 48.861 -115.88 12.552 -13.296 -15.407 12.552 -13.296 -15.407 -5.8816 -32.332 129.97 20.101 -38.493 -39.431 -3.4025 5.8109 -1.0996 45.077 -8.3716 52.95 0.085088 0.1784 0.0062627 -0 0 -0 -5.8816 -32.332 129.97 20.987 -46.109 -28.513 -16.917 30.343 8.5502 1.065 -11.237 21.322 -0.018101 0.017056 -0.0029333 -0 0 -0 
19.977 96.042 21.137 -0 0 -0 -6.2255 -31.826 129.94 7.6991 21.844 5.5262 7.6991 21.844 5.5262 6.5601 18.304 4.81 -0 0 -0 -42.798 -59.928 -76.916 44.254 -76.331 35.325 -0.041075 9.856 36.985 -0 0 -0 -13.296 -61.378 4.4332 51.603 -51.867 64.417 -32.462 48.752 -108.68 12.586 -13.021 -15.553 12.586 -13.021 -15.553 -6.2255 -31.826 129.94 19.972 -38.989 -40.1 -3.6797 6.165 -0.84138 44.098 -11.324 51.543 -0.17467 0.015055 -0.48436 -0 0 -0 -6.2255 -31.826 129.94 20.378 -46.21 -29.354 -16.675 29.945 8.8599 0.46586 -10.697 21.411 -0.013356 0.020945 -0.0035802 -0 0 -0 
19.812 95.92 21.669 -0 0 -0 -6.3922 -31.287 129.94 7.7733 21.16 5.1984 7.7733 21.16 5.1983 6.6118 17.732 4.5342 -0 0 -0 -40.092 -59.933 -73.763 47.046 -74.225 35.223 -1.8989 8.3122 38.636 -0 0 -0 -11.481 -61.236 4.2809 51.935 -51.984 62.632 -35.589 48.631 -102.23 12.644 -12.593 -15.7 12.644 -12.593 -15.7 -6.3922 -31.287 129.94 19.861 -39.481 -40.928 -3.993 6.604 -0.45928 43.152 -14.322 50.374 -0.085328 -0.015977 -0.26869 -0 0 -0 -6.3922 -31.287 129.94 19.84 -46.115 -30.055 -16.333 29.523 9.0638 -0.085845 -10.144 21.482 -0.0079515 0.014714 -0.00059721 -0 0 -0 
19.62 95.799 22.164 -0 0 -0 -6.4709 -30.676 129.89 7.8646 20.453 4.8431 7.8646 20.453 4.8431 6.6776 17.14 4.2353 -0 0 -0 -37.151 -59.647 -70.059 51.336 -70.944 34.897 -3.6416 6.7071 40.445 -0 0 -0 -9.8772 -60.738 3.2334 52.132 -51.435 62.798 -36.335 48.826 -98.35 12.692 -12.077 -15.864 12.692 -12.077 -15.864 -6.4709 -30.676 129.89 19.763 -39.858 -41.79 -4.2495 6.9568 0.026472 42.074 -17.179 49.712 0.11306 -0.084009 -0.14301 -0 0 -0 -6.4709 -30.676 129.89 19.302 -45.882 -30.578 -15.921 29.119 9.2149 -0.5902 -9.5849 21.487 -0.00082274 0.00758 0.0019664 -0 0 -0 
19.4 95.686 22.612 -0 0 -0 -6.5904 -29.909 129.73 7.903 19.747 4.4643 7.903 19.747 4.4643 6.6994 16.55 3.9151 -0 0 -0 -34.222 -59.113 -66.071 52.229 -68.279 31.721 -2.9267 5.6159 40.564 -0 0 -0 -8.9765 -59.883 1.4062 52.094 -50.636 64.026 -34.905 49.166 -96.824 12.745 -11.528 -16.062 12.745 -11.528 -16.062 -6.5904 -29.909 129.73 19.565 -40.013 -42.446 -4.3412 7.1458 0.45965 40.667 -20.006 49.35 0.1873 -0.1583 -0.26093 -0 0 -0 -6.5904 -29.909 129.73 18.631 -45.539 -30.934 -15.463 28.719 9.3264 -1.0378 -9.0061 21.447 0.0032418 0.004236 0.00099564 -0 0 -0 
19.153 95.589 23.006 -0 0 -0 -6.81 -28.944 129.37 7.8195 19.087 4.1001 7.8195 19.087 4.1001 6.6205 15.999 3.6041 -0 0 -0 -31.5 -58.422 -62.074 51.172 -66.337 27.271 -0.21601 5.1506 39.017 -0 0 -0 -8.5904 -58.804 -0.58873 51.85 -50.074 65.236 -32.29 49.434 -96.547 12.827 -11.016 -16.29 12.827 -11.016 -16.29 -6.81 -28.944 129.37 19.224 -39.848 -42.738 -4.2227 7.2233 0.71224 38.805 -22.972 49.28 0.19566 -0.156 -0.38432 -0 0 -0 -6.81 -28.944 129.37 17.811 -45.073 -31.112 -14.982 28.272 9.3258 -1.4058 -8.3811 21.502 -0.0021376 -0.00049261 -0.00094772 -0 0 -0 
18.877 95.512 23.338 -0 0 -0 -7.0932 -27.897 128.81 7.648 18.491 3.7658 7.648 18.491 3.7658 6.4693 15.502 3.3164 -0 0 -0 -29.148 -57.702 -58.216 49.987 -64.727 22.972 3.3461 5.1269 36.299 -0 0 -0 -8.3595 -57.607 -2.1768 51.347 -49.846 65.85 -29.343 49.633 -96.769 12.908 -10.575 -16.504 12.908 -10.575 -16.504 -7.0932 -27.897 128.81 18.898 -39.361 -42.627 -3.9307 7.246 0.73674 36.516 -26.133 49.677 0.19723 -0.12041 -0.37854 -0 0 -0 -7.0932 -27.897 128.81 16.983 -44.529 -31.109 -14.491 27.768 9.1703 -1.6904 -7.7003 21.765 -0.011105 -0.0032081 -0.0012256 -0 0 -0 
18.573 95.454 23.605 -0 0 -0 -7.3709 -26.966 128.09 7.5183 17.919 3.4173 7.5183 17.919 3.4173 6.353 15.025 3.018 -0 0 -0 -27.205 -57.015 -54.375 48.671 -63.594 19.069 7.2961 5.4189 32.338 -0 0 -0 -8.2264 -56.28 -3.1343 50.561 -49.892 65.902 -26.257 50.06 -97.477 12.898 -10.161 -16.643 12.898 -10.161 -16.643 -7.3709 -26.966 128.09 18.752 -38.67 -42 -3.4996 7.2735 0.38551 33.955 -29.516 50.613 0.13396 -0.075681 -0.30538 -0 0 -0 -7.3709 -26.966 128.09 16.313 -44.015 -30.985 -13.992 27.251 8.9242 -1.9167 -6.9898 22.212 -0.014739 -0.0030033 -0.00020775 -0 0 -0 
